<svg width="43" height="46" viewBox="0 0 43 46" fill="none" xmlns="http://www.w3.org/2000/svg">
<path d="M39.462 19.193H38.13V17.321C38.13 14.3 35.654 11.863 32.634 11.863H23.659V7.373C24.839 6.69 25.632 5.414 25.632 3.95C25.632 1.768 23.861 0 21.681 0C19.498 0 17.718 1.769 17.718 3.95C17.718 5.414 18.503 6.69 19.683 7.373V11.863H10.722C7.701 11.863 5.274 14.3 5.274 17.321V19.193H3.893C2.192 19.193 0.802002 20.6 0.802002 22.301V28.954C0.802002 30.654 2.192 32.049 3.893 32.049H5.274V33.936C5.274 36.957 7.701 39.378 10.722 39.378H13.286V42.262C13.286 43.963 14.679 45.342 16.38 45.342H26.976C28.677 45.342 30.056 43.963 30.056 42.262V39.379H32.634C35.655 39.379 38.13 36.957 38.13 33.936V32.05H39.462C41.163 32.05 42.54 30.656 42.54 28.955V22.302C42.54 20.601 41.165 19.193 39.462 19.193ZM9.681 21.271C9.681 19.272 11.302 17.653 13.3 17.653C15.298 17.653 16.917 19.272 16.917 21.271C16.917 23.27 15.298 24.889 13.3 24.889C11.302 24.889 9.681 23.27 9.681 21.271ZM26.606 34.473H16.75C15.117 34.473 13.793 33.157 13.793 31.522C13.793 29.889 15.117 28.573 16.75 28.573H26.607C28.24 28.573 29.564 29.889 29.564 31.522C29.564 33.155 28.239 34.473 26.606 34.473ZM30.056 24.889C28.058 24.889 26.438 23.27 26.438 21.271C26.438 19.272 28.058 17.653 30.056 17.653C32.055 17.653 33.675 19.272 33.675 21.271C33.675 23.27 32.055 24.889 30.056 24.889Z" fill="#007AFF" fill-opacity="0.9"/>
</svg>
