<svg width="128" height="128" viewBox="0 0 128 128" fill="none" xmlns="http://www.w3.org/2000/svg">
<path d="M8.72787 0.000818362C7.98352 0.000818362 7.23836 0.284356 6.6711 0.853069L0.853069 6.6711C-0.284356 7.80853 -0.284356 9.65012 0.853069 10.7846L22.0684 32L0.853069 53.2154C-0.284356 54.3528 -0.284356 56.1944 0.853069 57.3289L6.6711 63.1469C7.80853 64.2844 9.65012 64.2844 10.7846 63.1469L32 41.9316L53.2154 63.1469C54.3499 64.2844 56.1944 64.2844 57.3289 63.1469L63.1469 57.3289C64.2844 56.1915 64.2844 54.3499 63.1469 53.2154L41.9316 32L63.1469 10.7846C64.2844 9.65012 64.2844 7.80562 63.1469 6.6711L57.3289 0.853069C56.1915 -0.284356 54.3499 -0.284356 53.2154 0.853069L32 22.0684L10.7846 0.853069C10.2159 0.284356 9.47221 0.000818362 8.72787 0.000818362Z" fill="#007AFF"/>
<path d="M72.7279 64.0008C71.9835 64.0008 71.2384 64.2844 70.6711 64.8531L64.8531 70.6711C63.7156 71.8085 63.7156 73.6501 64.8531 74.7846L86.0684 96L64.8531 117.215C63.7156 118.353 63.7156 120.194 64.8531 121.329L70.6711 127.147C71.8085 128.284 73.6501 128.284 74.7846 127.147L96 105.932L117.215 127.147C118.35 128.284 120.194 128.284 121.329 127.147L127.147 121.329C128.284 120.191 128.284 118.35 127.147 117.215L105.932 96L127.147 74.7846C128.284 73.6501 128.284 71.8056 127.147 70.6711L121.329 64.8531C120.191 63.7156 118.35 63.7156 117.215 64.8531L96 86.0684L74.7846 64.8531C74.2159 64.2844 73.4722 64.0008 72.7279 64.0008Z" fill="#007AFF"/>
<path fill-rule="evenodd" clip-rule="evenodd" d="M64 96C64 113.673 49.6731 128 32 128C14.3269 128 0 113.673 0 96C0 78.3269 14.3269 64 32 64C49.6731 64 64 78.3269 64 96ZM32 114.914C42.4457 114.914 50.9136 106.446 50.9136 96C50.9136 85.5543 42.4457 77.0864 32 77.0864C21.5543 77.0864 13.0864 85.5543 13.0864 96C13.0864 106.446 21.5543 114.914 32 114.914Z" fill="#007AFF"/>
<path fill-rule="evenodd" clip-rule="evenodd" d="M128 32C128 49.6731 113.673 64 96 64C78.3269 64 64 49.6731 64 32C64 14.3269 78.3269 0 96 0C113.673 0 128 14.3269 128 32ZM96 50.9136C106.446 50.9136 114.914 42.4457 114.914 32C114.914 21.5543 106.446 13.0864 96 13.0864C85.5543 13.0864 77.0864 21.5543 77.0864 32C77.0864 42.4457 85.5543 50.9136 96 50.9136Z" fill="#007AFF"/>
</svg>
